<svg xmlns="http://www.w3.org/2000/svg" xmlns:xlink="http://www.w3.org/1999/xlink" width="500" zoomAndPan="magnify" viewBox="0 0 375 374.999991" height="500" preserveAspectRatio="xMidYMid meet" version="1.0"><defs><clipPath id="be1bbe5d53"><path d="M 29.183594 19 L 345.683594 19 L 345.683594 179 L 29.183594 179 Z M 29.183594 19 " clip-rule="nonzero"/></clipPath><clipPath id="8eed9ce1e9"><path d="M 29.183594 168 L 345.683594 168 L 345.683594 268 L 29.183594 268 Z M 29.183594 168 " clip-rule="nonzero"/></clipPath><clipPath id="8ccea62cbe"><path d="M 29.183594 256 L 345.683594 256 L 345.683594 356 L 29.183594 356 Z M 29.183594 256 " clip-rule="nonzero"/></clipPath></defs><g clip-path="url(#be1bbe5d53)"><path fill="#0795ff" d="M 32.566406 104.78125 L 184.257812 177.839844 C 185.152344 178.265625 186.089844 178.476562 187.078125 178.476562 C 188.066406 178.476562 189.007812 178.265625 189.898438 177.839844 L 341.59375 104.78125 C 342.136719 104.515625 342.632812 104.175781 343.078125 103.769531 C 343.527344 103.363281 343.910156 102.902344 344.230469 102.390625 C 344.550781 101.875 344.792969 101.328125 344.960938 100.746094 C 345.125 100.164062 345.207031 99.570312 345.207031 98.964844 C 345.207031 98.359375 345.125 97.765625 344.960938 97.183594 C 344.792969 96.601562 344.550781 96.050781 344.230469 95.539062 C 343.910156 95.023438 343.527344 94.5625 343.078125 94.15625 C 342.632812 93.75 342.136719 93.414062 341.59375 93.144531 L 189.898438 20.089844 C 189.007812 19.664062 188.066406 19.449219 187.078125 19.449219 C 186.089844 19.449219 185.152344 19.664062 184.261719 20.089844 L 32.566406 93.144531 C 32.023438 93.414062 31.527344 93.75 31.078125 94.15625 C 30.632812 94.5625 30.246094 95.023438 29.925781 95.539062 C 29.609375 96.050781 29.367188 96.601562 29.199219 97.183594 C 29.035156 97.765625 28.949219 98.359375 28.949219 98.964844 C 28.949219 99.570312 29.035156 100.164062 29.199219 100.746094 C 29.367188 101.328125 29.609375 101.875 29.925781 102.390625 C 30.246094 102.902344 30.632812 103.363281 31.078125 103.769531 C 31.527344 104.175781 32.023438 104.515625 32.566406 104.78125 Z M 32.566406 104.78125 " fill-opacity="1" fill-rule="nonzero"/></g><g clip-path="url(#8eed9ce1e9)"><path fill="#156cdd" d="M 32.566406 193.492188 L 184.257812 266.410156 C 185.152344 266.835938 186.089844 267.046875 187.078125 267.046875 C 188.066406 267.046875 189.007812 266.835938 189.898438 266.410156 L 341.59375 193.492188 C 342.136719 193.230469 342.636719 192.898438 343.085938 192.496094 C 343.535156 192.09375 343.921875 191.636719 344.242188 191.125 C 344.5625 190.613281 344.808594 190.070312 344.976562 189.488281 C 345.144531 188.90625 345.226562 188.316406 345.226562 187.710938 C 345.226562 187.105469 345.144531 186.515625 344.976562 185.933594 C 344.808594 185.355469 344.5625 184.808594 344.242188 184.296875 C 343.921875 183.785156 343.535156 183.328125 343.085938 182.925781 C 342.636719 182.523438 342.136719 182.191406 341.59375 181.929688 L 317.484375 170.222656 C 316.257812 169.613281 314.980469 169.152344 313.644531 168.839844 C 312.3125 168.527344 310.960938 168.371094 309.589844 168.371094 C 308.222656 168.371094 306.871094 168.527344 305.535156 168.839844 C 304.203125 169.152344 302.921875 169.613281 301.695312 170.222656 L 208.226562 215.355469 C 206.601562 216.128906 204.941406 216.8125 203.242188 217.402344 C 201.539062 217.992188 199.8125 218.488281 198.058594 218.886719 C 196.304688 219.285156 194.53125 219.582031 192.742188 219.78125 C 190.953125 219.980469 189.160156 220.082031 187.359375 220.082031 C 185.5625 220.082031 183.769531 219.980469 181.980469 219.78125 C 180.191406 219.582031 178.417969 219.285156 176.664062 218.886719 C 174.910156 218.488281 173.183594 217.992188 171.480469 217.402344 C 169.78125 216.8125 168.121094 216.128906 166.496094 215.355469 L 72.53125 170.152344 C 71.296875 169.5625 70.007812 169.113281 68.667969 168.808594 C 67.332031 168.507812 65.976562 168.355469 64.601562 168.355469 C 63.230469 168.355469 61.875 168.507812 60.539062 168.808594 C 59.199219 169.113281 57.910156 169.5625 56.671875 170.152344 L 32.566406 181.789062 C 32.019531 182.050781 31.523438 182.382812 31.074219 182.785156 C 30.625 183.1875 30.238281 183.644531 29.914062 184.15625 C 29.59375 184.667969 29.351562 185.214844 29.183594 185.792969 C 29.015625 186.375 28.933594 186.964844 28.933594 187.570312 C 28.933594 188.175781 29.015625 188.765625 29.183594 189.347656 C 29.351562 189.929688 29.59375 190.472656 29.914062 190.984375 C 30.238281 191.496094 30.625 191.953125 31.074219 192.355469 C 31.523438 192.757812 32.019531 193.089844 32.566406 193.351562 Z M 32.566406 193.492188 " fill-opacity="1" fill-rule="nonzero"/></g><g clip-path="url(#8ccea62cbe)"><path fill="#156cdd" d="M 341.59375 270.429688 L 317.484375 258.792969 C 316.253906 258.203125 314.972656 257.757812 313.640625 257.453125 C 312.308594 257.148438 310.957031 257 309.589844 257 C 308.222656 257 306.875 257.148438 305.542969 257.453125 C 304.210938 257.757812 302.929688 258.203125 301.695312 258.792969 L 208.226562 303.925781 C 206.605469 304.714844 204.945312 305.40625 203.246094 306.003906 C 201.546875 306.605469 199.820312 307.105469 198.066406 307.507812 C 196.308594 307.914062 194.539062 308.214844 192.746094 308.417969 C 190.957031 308.621094 189.164062 308.722656 187.359375 308.722656 C 185.558594 308.722656 183.765625 308.621094 181.976562 308.417969 C 180.183594 308.214844 178.414062 307.914062 176.65625 307.507812 C 174.902344 307.105469 173.175781 306.605469 171.476562 306.003906 C 169.777344 305.40625 168.117188 304.714844 166.496094 303.925781 L 72.816406 258.792969 C 71.578125 258.203125 70.289062 257.753906 68.949219 257.453125 C 67.613281 257.148438 66.257812 256.996094 64.886719 256.996094 C 63.511719 256.996094 62.15625 257.148438 60.820312 257.453125 C 59.480469 257.753906 58.191406 258.203125 56.953125 258.792969 L 32.847656 270.429688 C 32.304688 270.691406 31.804688 271.023438 31.355469 271.425781 C 30.90625 271.828125 30.519531 272.285156 30.199219 272.796875 C 29.875 273.308594 29.632812 273.855469 29.464844 274.433594 C 29.296875 275.015625 29.214844 275.609375 29.214844 276.210938 C 29.214844 276.816406 29.296875 277.410156 29.464844 277.988281 C 29.632812 278.570312 29.875 279.117188 30.199219 279.628906 C 30.519531 280.140625 30.90625 280.597656 31.355469 281 C 31.804688 281.402344 32.304688 281.734375 32.847656 281.996094 L 184.257812 355.050781 C 185.152344 355.476562 186.089844 355.691406 187.078125 355.691406 C 188.066406 355.691406 189.007812 355.476562 189.898438 355.050781 L 341.59375 281.996094 C 342.136719 281.734375 342.636719 281.402344 343.085938 281 C 343.535156 280.597656 343.921875 280.140625 344.242188 279.628906 C 344.5625 279.117188 344.808594 278.570312 344.976562 277.988281 C 345.144531 277.410156 345.226562 276.816406 345.226562 276.210938 C 345.226562 275.609375 345.144531 275.015625 344.976562 274.433594 C 344.808594 273.855469 344.5625 273.308594 344.242188 272.796875 C 343.921875 272.285156 343.535156 271.828125 343.085938 271.425781 C 342.636719 271.023438 342.136719 270.691406 341.59375 270.429688 Z M 341.59375 270.429688 " fill-opacity="1" fill-rule="nonzero"/></g></svg>