<svg xmlns="http://www.w3.org/2000/svg" xmlns:xlink="http://www.w3.org/1999/xlink" width="800" zoomAndPan="magnify" viewBox="0 0 600 179.999997" height="240" preserveAspectRatio="xMidYMid meet" version="1.0"><defs><g/><clipPath id="id1"><path d="M 57.582031 28 L 173.832031 28 L 173.832031 87 L 57.582031 87 Z M 57.582031 28 " clip-rule="nonzero"/></clipPath><clipPath id="id2"><path d="M 57.582031 82 L 173.832031 82 L 173.832031 120 L 57.582031 120 Z M 57.582031 82 " clip-rule="nonzero"/></clipPath><clipPath id="id3"><path d="M 57.582031 115 L 173.832031 115 L 173.832031 151.742188 L 57.582031 151.742188 Z M 57.582031 115 " clip-rule="nonzero"/></clipPath></defs><g fill="rgb(100%, 55.288696%, 33.329773%)" fill-opacity="0.4"><g transform="translate(200.700858, 92.750391)"><g><path d="M 36.070312 -30.53125 L 16.324219 -30.53125 L 16.324219 -40.953125 L 39.714844 -40.953125 L 39.714844 -51.738281 L 4.445312 -51.738281 L 4.445312 0 L 16.324219 0 L 16.324219 -19.75 L 36.070312 -19.75 Z M 36.070312 -30.53125 "/></g></g></g><g fill="rgb(100%, 55.288696%, 33.329773%)" fill-opacity="0.4"><g transform="translate(242.234729, 92.750391)"><g><path d="M 14.355469 -37.894531 L 3.351562 -37.894531 L 3.351562 -13.992188 C 3.351562 -3.933594 8.597656 1.09375 19.09375 1.09375 C 24.703125 1.09375 29.730469 0.21875 34.03125 -1.53125 L 36.871094 -2.695312 L 36.871094 -37.894531 L 25.871094 -37.894531 L 25.871094 -9.546875 L 25.359375 -9.398438 C 23.828125 -9.035156 22.226562 -8.890625 20.550781 -8.890625 C 16.394531 -8.890625 14.355469 -10.710938 14.355469 -14.355469 Z M 14.355469 -37.894531 "/></g></g></g><g fill="rgb(100%, 55.288696%, 33.329773%)" fill-opacity="0.4"><g transform="translate(282.675612, 92.750391)"><g><path d="M 19.964844 -38.984375 C 8.671875 -38.984375 2.476562 -33.300781 2.476562 -22.808594 L 2.476562 -15.085938 C 2.476562 -5.246094 7.941406 1.09375 19.894531 1.09375 C 27.765625 1.09375 33.082031 -1.164062 35.925781 -5.683594 L 37.089844 -7.578125 L 27.984375 -12.242188 L 26.960938 -10.859375 C 25.503906 -8.890625 23.171875 -7.941406 20.039062 -7.941406 C 15.667969 -7.941406 13.480469 -9.835938 13.480469 -13.699219 L 13.480469 -15.523438 L 37.527344 -15.523438 L 37.527344 -23.609375 C 37.527344 -32.574219 31.554688 -38.984375 19.964844 -38.984375 Z M 26.453125 -23.464844 L 13.480469 -23.464844 L 13.480469 -24.628906 C 13.480469 -28.347656 15.667969 -30.242188 19.964844 -30.242188 C 24.265625 -30.242188 26.453125 -28.347656 26.453125 -24.628906 Z M 26.453125 -23.464844 "/></g></g></g><g fill="rgb(100%, 55.288696%, 33.329773%)" fill-opacity="0.4"><g transform="translate(322.242101, 92.750391)"><g><path d="M 14.867188 -53.925781 L 3.863281 -53.925781 L 3.863281 0 L 14.867188 0 Z M 14.867188 -53.925781 "/></g></g></g><g fill="rgb(100%, 55.288696%, 33.329773%)" fill-opacity="0.4"><g transform="translate(340.895914, 92.750391)"><g><path d="M 17.925781 -38.984375 C 7.796875 -38.984375 2.257812 -34.175781 2.257812 -26.816406 C 2.257812 -17.636719 9.472656 -15.59375 17.199219 -14.867188 C 23.246094 -14.28125 24.921875 -13.699219 24.921875 -11.367188 C 24.921875 -9.398438 22.808594 -8.378906 18.65625 -8.378906 C 15.085938 -8.378906 12.898438 -9.328125 12.023438 -11.148438 L 11.222656 -12.898438 L 1.382812 -9.691406 L 2.257812 -7.578125 C 4.589844 -1.820312 10.203125 1.09375 19.019531 1.09375 C 29.441406 1.09375 35.414062 -3.933594 35.414062 -11.585938 C 35.414062 -19.75 30.53125 -22.515625 19.964844 -23.539062 C 14.648438 -24.046875 12.898438 -24.703125 12.898438 -26.816406 C 12.898438 -28.566406 14.71875 -29.441406 18.289062 -29.441406 C 21.207031 -29.441406 23.320312 -28.492188 24.628906 -26.671875 L 25.652344 -25.214844 L 35.195312 -29.222656 L 34.105469 -31.1875 C 31.335938 -36.363281 25.941406 -38.984375 17.925781 -38.984375 Z M 17.925781 -38.984375 "/></g></g></g><g fill="rgb(100%, 55.288696%, 33.329773%)" fill-opacity="0.4"><g transform="translate(378.057811, 92.750391)"><g><path d="M 0.65625 -37.894531 L 0.65625 -28.128906 L 7.214844 -28.128906 L 7.214844 -15.449219 C 7.214844 -2.257812 12.386719 1.019531 24.921875 1.019531 L 27.617188 1.019531 L 27.617188 -9.109375 L 24.921875 -9.109375 C 19.894531 -9.109375 18.21875 -10.421875 18.21875 -15.886719 L 18.21875 -28.128906 L 27.617188 -28.128906 L 27.617188 -37.894531 L 18.21875 -37.894531 L 18.21875 -46.636719 L 7.214844 -46.636719 L 7.214844 -37.894531 Z M 0.65625 -37.894531 "/></g></g></g><g fill="rgb(100%, 55.288696%, 33.329773%)" fill-opacity="0.4"><g transform="translate(407.277268, 92.750391)"><g><path d="M 24.121094 -22.734375 C 22.589844 -22.808594 20.839844 -22.882812 18.945312 -22.882812 C 6.703125 -22.882812 1.96875 -19.894531 1.96875 -10.929688 C 1.96875 -2.695312 6.046875 1.09375 18.65625 1.09375 C 24.921875 1.09375 29.511719 0.4375 32.425781 -0.875 C 32.71875 -1.019531 35.125 -2.113281 35.125 -2.113281 L 35.125 -23.609375 C 35.125 -33.886719 29.730469 -38.984375 18.875 -38.984375 C 11.148438 -38.984375 5.976562 -36.4375 3.277344 -31.40625 L 2.1875 -29.292969 L 11.296875 -25.503906 L 12.460938 -27.035156 C 13.84375 -28.855469 15.8125 -29.730469 18.507812 -29.730469 C 22.226562 -29.730469 24.121094 -27.910156 24.121094 -24.339844 Z M 18 -14.5 C 19.09375 -14.5 23.539062 -14.355469 24.121094 -14.355469 L 24.121094 -7.796875 L 23.464844 -7.722656 C 22.226562 -7.503906 20.332031 -7.433594 17.851562 -7.433594 C 14.0625 -7.433594 12.972656 -8.671875 12.972656 -11.003906 C 12.972656 -13.261719 14.136719 -14.5 18 -14.5 Z M 18 -14.5 "/></g></g></g><g fill="rgb(100%, 55.288696%, 33.329773%)" fill-opacity="0.4"><g transform="translate(445.459289, 92.750391)"><g><path d="M 13.554688 -24.046875 C 13.554688 -27.691406 15.523438 -29.511719 19.457031 -29.511719 C 22.445312 -29.511719 24.410156 -28.273438 25.433594 -25.796875 C 25.503906 -25.578125 26.523438 -23.101562 26.523438 -23.101562 L 36.871094 -26.453125 L 35.851562 -29.292969 C 33.8125 -35.125 28.273438 -38.984375 19.894531 -38.984375 C 8.234375 -38.984375 2.550781 -33.375 2.550781 -23.539062 L 2.550781 -14.355469 C 2.550781 -4.082031 8.089844 1.09375 19.164062 1.09375 C 27.617188 1.09375 33.230469 -2.113281 35.925781 -8.527344 L 37.164062 -11.441406 L 26.523438 -14.71875 C 26.523438 -14.71875 25.503906 -12.242188 25.433594 -12.097656 C 24.410156 -9.617188 22.445312 -8.378906 19.457031 -8.378906 C 15.523438 -8.378906 13.554688 -10.203125 13.554688 -13.84375 Z M 13.554688 -24.046875 "/></g></g></g><g fill="rgb(100%, 55.288696%, 33.329773%)" fill-opacity="0.4"><g transform="translate(483.276986, 92.750391)"><g><path d="M 17.269531 -14.355469 C 19.53125 -14.355469 21.132812 -13.410156 21.933594 -11.441406 L 26.890625 0 L 39.058594 0 L 31.117188 -16.105469 C 29.878906 -18.582031 28.492188 -20.332031 27.035156 -21.351562 L 39.132812 -37.894531 L 26.453125 -37.894531 L 16.6875 -24.121094 L 14.71875 -24.121094 L 14.71875 -53.925781 L 3.714844 -53.925781 L 3.714844 0 L 14.71875 0 L 14.71875 -14.355469 Z M 17.269531 -14.355469 "/></g></g></g><g fill="rgb(2.749634%, 58.428955%, 100%)" fill-opacity="1"><g transform="translate(204.953285, 91.118038)"><g><path d="M 36.070312 -30.53125 L 16.324219 -30.53125 L 16.324219 -40.953125 L 39.714844 -40.953125 L 39.714844 -51.738281 L 4.445312 -51.738281 L 4.445312 0 L 16.324219 0 L 16.324219 -19.75 L 36.070312 -19.75 Z M 36.070312 -30.53125 "/></g></g></g><g fill="rgb(2.749634%, 58.428955%, 100%)" fill-opacity="1"><g transform="translate(246.487157, 91.118038)"><g><path d="M 14.355469 -37.894531 L 3.351562 -37.894531 L 3.351562 -13.992188 C 3.351562 -3.933594 8.597656 1.09375 19.09375 1.09375 C 24.703125 1.09375 29.730469 0.21875 34.03125 -1.53125 L 36.871094 -2.695312 L 36.871094 -37.894531 L 25.871094 -37.894531 L 25.871094 -9.546875 L 25.359375 -9.398438 C 23.828125 -9.035156 22.226562 -8.890625 20.550781 -8.890625 C 16.394531 -8.890625 14.355469 -10.710938 14.355469 -14.355469 Z M 14.355469 -37.894531 "/></g></g></g><g fill="rgb(2.749634%, 58.428955%, 100%)" fill-opacity="1"><g transform="translate(286.92804, 91.118038)"><g><path d="M 19.964844 -38.984375 C 8.671875 -38.984375 2.476562 -33.300781 2.476562 -22.808594 L 2.476562 -15.085938 C 2.476562 -5.246094 7.941406 1.09375 19.894531 1.09375 C 27.765625 1.09375 33.082031 -1.164062 35.925781 -5.683594 L 37.089844 -7.578125 L 27.984375 -12.242188 L 26.960938 -10.859375 C 25.503906 -8.890625 23.171875 -7.941406 20.039062 -7.941406 C 15.667969 -7.941406 13.480469 -9.835938 13.480469 -13.699219 L 13.480469 -15.523438 L 37.527344 -15.523438 L 37.527344 -23.609375 C 37.527344 -32.574219 31.554688 -38.984375 19.964844 -38.984375 Z M 26.453125 -23.464844 L 13.480469 -23.464844 L 13.480469 -24.628906 C 13.480469 -28.347656 15.667969 -30.242188 19.964844 -30.242188 C 24.265625 -30.242188 26.453125 -28.347656 26.453125 -24.628906 Z M 26.453125 -23.464844 "/></g></g></g><g fill="rgb(2.749634%, 58.428955%, 100%)" fill-opacity="1"><g transform="translate(326.494528, 91.118038)"><g><path d="M 14.867188 -53.925781 L 3.863281 -53.925781 L 3.863281 0 L 14.867188 0 Z M 14.867188 -53.925781 "/></g></g></g><g fill="rgb(2.749634%, 58.428955%, 100%)" fill-opacity="1"><g transform="translate(345.148341, 91.118038)"><g><path d="M 17.925781 -38.984375 C 7.796875 -38.984375 2.257812 -34.175781 2.257812 -26.816406 C 2.257812 -17.636719 9.472656 -15.59375 17.199219 -14.867188 C 23.246094 -14.28125 24.921875 -13.699219 24.921875 -11.367188 C 24.921875 -9.398438 22.808594 -8.378906 18.65625 -8.378906 C 15.085938 -8.378906 12.898438 -9.328125 12.023438 -11.148438 L 11.222656 -12.898438 L 1.382812 -9.691406 L 2.257812 -7.578125 C 4.589844 -1.820312 10.203125 1.09375 19.019531 1.09375 C 29.441406 1.09375 35.414062 -3.933594 35.414062 -11.585938 C 35.414062 -19.75 30.53125 -22.515625 19.964844 -23.539062 C 14.648438 -24.046875 12.898438 -24.703125 12.898438 -26.816406 C 12.898438 -28.566406 14.71875 -29.441406 18.289062 -29.441406 C 21.207031 -29.441406 23.320312 -28.492188 24.628906 -26.671875 L 25.652344 -25.214844 L 35.195312 -29.222656 L 34.105469 -31.1875 C 31.335938 -36.363281 25.941406 -38.984375 17.925781 -38.984375 Z M 17.925781 -38.984375 "/></g></g></g><g fill="rgb(2.749634%, 58.428955%, 100%)" fill-opacity="1"><g transform="translate(382.310238, 91.118038)"><g><path d="M 0.65625 -37.894531 L 0.65625 -28.128906 L 7.214844 -28.128906 L 7.214844 -15.449219 C 7.214844 -2.257812 12.386719 1.019531 24.921875 1.019531 L 27.617188 1.019531 L 27.617188 -9.109375 L 24.921875 -9.109375 C 19.894531 -9.109375 18.21875 -10.421875 18.21875 -15.886719 L 18.21875 -28.128906 L 27.617188 -28.128906 L 27.617188 -37.894531 L 18.21875 -37.894531 L 18.21875 -46.636719 L 7.214844 -46.636719 L 7.214844 -37.894531 Z M 0.65625 -37.894531 "/></g></g></g><g fill="rgb(2.749634%, 58.428955%, 100%)" fill-opacity="1"><g transform="translate(411.529696, 91.118038)"><g><path d="M 24.121094 -22.734375 C 22.589844 -22.808594 20.839844 -22.882812 18.945312 -22.882812 C 6.703125 -22.882812 1.96875 -19.894531 1.96875 -10.929688 C 1.96875 -2.695312 6.046875 1.09375 18.65625 1.09375 C 24.921875 1.09375 29.511719 0.4375 32.425781 -0.875 C 32.71875 -1.019531 35.125 -2.113281 35.125 -2.113281 L 35.125 -23.609375 C 35.125 -33.886719 29.730469 -38.984375 18.875 -38.984375 C 11.148438 -38.984375 5.976562 -36.4375 3.277344 -31.40625 L 2.1875 -29.292969 L 11.296875 -25.503906 L 12.460938 -27.035156 C 13.84375 -28.855469 15.8125 -29.730469 18.507812 -29.730469 C 22.226562 -29.730469 24.121094 -27.910156 24.121094 -24.339844 Z M 18 -14.5 C 19.09375 -14.5 23.539062 -14.355469 24.121094 -14.355469 L 24.121094 -7.796875 L 23.464844 -7.722656 C 22.226562 -7.503906 20.332031 -7.433594 17.851562 -7.433594 C 14.0625 -7.433594 12.972656 -8.671875 12.972656 -11.003906 C 12.972656 -13.261719 14.136719 -14.5 18 -14.5 Z M 18 -14.5 "/></g></g></g><g fill="rgb(2.749634%, 58.428955%, 100%)" fill-opacity="1"><g transform="translate(449.711717, 91.118038)"><g><path d="M 13.554688 -24.046875 C 13.554688 -27.691406 15.523438 -29.511719 19.457031 -29.511719 C 22.445312 -29.511719 24.410156 -28.273438 25.433594 -25.796875 C 25.503906 -25.578125 26.523438 -23.101562 26.523438 -23.101562 L 36.871094 -26.453125 L 35.851562 -29.292969 C 33.8125 -35.125 28.273438 -38.984375 19.894531 -38.984375 C 8.234375 -38.984375 2.550781 -33.375 2.550781 -23.539062 L 2.550781 -14.355469 C 2.550781 -4.082031 8.089844 1.09375 19.164062 1.09375 C 27.617188 1.09375 33.230469 -2.113281 35.925781 -8.527344 L 37.164062 -11.441406 L 26.523438 -14.71875 C 26.523438 -14.71875 25.503906 -12.242188 25.433594 -12.097656 C 24.410156 -9.617188 22.445312 -8.378906 19.457031 -8.378906 C 15.523438 -8.378906 13.554688 -10.203125 13.554688 -13.84375 Z M 13.554688 -24.046875 "/></g></g></g><g fill="rgb(2.749634%, 58.428955%, 100%)" fill-opacity="1"><g transform="translate(487.529414, 91.118038)"><g><path d="M 17.269531 -14.355469 C 19.53125 -14.355469 21.132812 -13.410156 21.933594 -11.441406 L 26.890625 0 L 39.058594 0 L 31.117188 -16.105469 C 29.878906 -18.582031 28.492188 -20.332031 27.035156 -21.351562 L 39.132812 -37.894531 L 26.453125 -37.894531 L 16.6875 -24.121094 L 14.71875 -24.121094 L 14.71875 -53.925781 L 3.714844 -53.925781 L 3.714844 0 L 14.71875 0 L 14.71875 -14.355469 Z M 17.269531 -14.355469 "/></g></g></g><g fill="rgb(100%, 100%, 100%)" fill-opacity="0.4"><g transform="translate(203.579758, 142.422987)"><g><path d="M 11.652344 -9.863281 L 5.273438 -9.863281 L 5.273438 -13.230469 L 12.828125 -13.230469 L 12.828125 -16.714844 L 1.4375 -16.714844 L 1.4375 0 L 5.273438 0 L 5.273438 -6.378906 L 11.652344 -6.378906 Z M 11.652344 -9.863281 "/></g></g></g><g fill="rgb(100%, 100%, 100%)" fill-opacity="0.4"><g transform="translate(216.997452, 142.422987)"><g><path d="M 4.636719 -12.242188 L 1.082031 -12.242188 L 1.082031 -4.519531 C 1.082031 -1.269531 2.777344 0.351562 6.167969 0.351562 C 7.980469 0.351562 9.605469 0.0703125 10.992188 -0.496094 L 11.910156 -0.871094 L 11.910156 -12.242188 L 8.355469 -12.242188 L 8.355469 -3.082031 L 8.191406 -3.035156 C 7.699219 -2.917969 7.179688 -2.871094 6.636719 -2.871094 C 5.296875 -2.871094 4.636719 -3.460938 4.636719 -4.636719 Z M 4.636719 -12.242188 "/></g></g></g><g fill="rgb(100%, 100%, 100%)" fill-opacity="0.4"><g transform="translate(230.062047, 142.422987)"><g><path d="M 4.800781 -17.417969 L 1.246094 -17.417969 L 1.246094 0 L 4.800781 0 Z M 4.800781 -17.417969 "/></g></g></g><g fill="rgb(100%, 100%, 100%)" fill-opacity="0.4"><g transform="translate(236.088238, 142.422987)"><g><path d="M 4.800781 -17.417969 L 1.246094 -17.417969 L 1.246094 0 L 4.800781 0 Z M 4.800781 -17.417969 "/></g></g></g><g fill="rgb(100%, 100%, 100%)" fill-opacity="0.4"><g transform="translate(242.11443, 142.422987)"><g/></g></g><g fill="rgb(100%, 100%, 100%)" fill-opacity="0.4"><g transform="translate(246.869477, 142.422987)"><g><path d="M 5.789062 -12.59375 C 2.519531 -12.59375 0.730469 -11.039062 0.730469 -8.664062 C 0.730469 -5.695312 3.058594 -5.039062 5.554688 -4.800781 C 7.507812 -4.613281 8.050781 -4.425781 8.050781 -3.671875 C 8.050781 -3.035156 7.367188 -2.707031 6.027344 -2.707031 C 4.871094 -2.707031 4.167969 -3.011719 3.882812 -3.601562 L 3.625 -4.167969 L 0.445312 -3.128906 L 0.730469 -2.449219 C 1.484375 -0.589844 3.296875 0.351562 6.144531 0.351562 C 9.511719 0.351562 11.441406 -1.269531 11.441406 -3.742188 C 11.441406 -6.378906 9.863281 -7.273438 6.449219 -7.601562 C 4.730469 -7.769531 4.167969 -7.980469 4.167969 -8.664062 C 4.167969 -9.226562 4.753906 -9.511719 5.910156 -9.511719 C 6.851562 -9.511719 7.53125 -9.203125 7.957031 -8.617188 L 8.285156 -8.144531 L 11.371094 -9.441406 L 11.015625 -10.074219 C 10.121094 -11.746094 8.378906 -12.59375 5.789062 -12.59375 Z M 5.789062 -12.59375 "/></g></g></g><g fill="rgb(100%, 100%, 100%)" fill-opacity="0.4"><g transform="translate(258.874776, 142.422987)"><g><path d="M 0.210938 -12.242188 L 0.210938 -9.085938 L 2.332031 -9.085938 L 2.332031 -4.992188 C 2.332031 -0.730469 4 0.328125 8.050781 0.328125 L 8.921875 0.328125 L 8.921875 -2.941406 L 8.050781 -2.941406 C 6.425781 -2.941406 5.886719 -3.367188 5.886719 -5.132812 L 5.886719 -9.085938 L 8.921875 -9.085938 L 8.921875 -12.242188 L 5.886719 -12.242188 L 5.886719 -15.066406 L 2.332031 -15.066406 L 2.332031 -12.242188 Z M 0.210938 -12.242188 "/></g></g></g><g fill="rgb(100%, 100%, 100%)" fill-opacity="0.4"><g transform="translate(268.314246, 142.422987)"><g><path d="M 7.792969 -7.34375 C 7.296875 -7.367188 6.730469 -7.390625 6.121094 -7.390625 C 2.164062 -7.390625 0.636719 -6.425781 0.636719 -3.53125 C 0.636719 -0.871094 1.953125 0.351562 6.027344 0.351562 C 8.050781 0.351562 9.535156 0.140625 10.476562 -0.28125 C 10.570312 -0.328125 11.347656 -0.683594 11.347656 -0.683594 L 11.347656 -7.625 C 11.347656 -10.945312 9.605469 -12.59375 6.097656 -12.59375 C 3.601562 -12.59375 1.929688 -11.769531 1.058594 -10.144531 L 0.707031 -9.464844 L 3.648438 -8.238281 L 4.023438 -8.734375 C 4.472656 -9.320312 5.109375 -9.605469 5.980469 -9.605469 C 7.179688 -9.605469 7.792969 -9.015625 7.792969 -7.863281 Z M 5.8125 -4.683594 C 6.167969 -4.683594 7.601562 -4.636719 7.792969 -4.636719 L 7.792969 -2.519531 L 7.578125 -2.496094 C 7.179688 -2.425781 6.566406 -2.402344 5.765625 -2.402344 C 4.542969 -2.402344 4.191406 -2.800781 4.191406 -3.554688 C 4.191406 -4.285156 4.566406 -4.683594 5.8125 -4.683594 Z M 5.8125 -4.683594 "/></g></g></g><g fill="rgb(100%, 100%, 100%)" fill-opacity="0.4"><g transform="translate(280.649101, 142.422987)"><g><path d="M 4.378906 -7.769531 C 4.378906 -8.945312 5.015625 -9.535156 6.285156 -9.535156 C 7.25 -9.535156 7.886719 -9.132812 8.214844 -8.332031 C 8.238281 -8.261719 8.570312 -7.460938 8.570312 -7.460938 L 11.910156 -8.546875 L 11.582031 -9.464844 C 10.921875 -11.347656 9.132812 -12.59375 6.425781 -12.59375 C 2.660156 -12.59375 0.824219 -10.78125 0.824219 -7.601562 L 0.824219 -4.636719 C 0.824219 -1.316406 2.613281 0.351562 6.191406 0.351562 C 8.921875 0.351562 10.734375 -0.683594 11.605469 -2.753906 L 12.003906 -3.695312 L 8.570312 -4.753906 C 8.570312 -4.753906 8.238281 -3.953125 8.214844 -3.90625 C 7.886719 -3.105469 7.25 -2.707031 6.285156 -2.707031 C 5.015625 -2.707031 4.378906 -3.296875 4.378906 -4.472656 Z M 4.378906 -7.769531 "/></g></g></g><g fill="rgb(100%, 100%, 100%)" fill-opacity="0.4"><g transform="translate(292.866262, 142.422987)"><g><path d="M 5.578125 -4.636719 C 6.308594 -4.636719 6.828125 -4.332031 7.085938 -3.695312 L 8.6875 0 L 12.617188 0 L 10.050781 -5.203125 C 9.652344 -6.003906 9.203125 -6.566406 8.734375 -6.898438 L 12.640625 -12.242188 L 8.546875 -12.242188 L 5.390625 -7.792969 L 4.753906 -7.792969 L 4.753906 -17.417969 L 1.199219 -17.417969 L 1.199219 0 L 4.753906 0 L 4.753906 -4.636719 Z M 5.578125 -4.636719 "/></g></g></g><g fill="rgb(100%, 100%, 100%)" fill-opacity="0.4"><g transform="translate(305.483606, 142.422987)"><g/></g></g><g fill="rgb(100%, 100%, 100%)" fill-opacity="0.4"><g transform="translate(310.238654, 142.422987)"><g><path d="M 6.683594 -12.59375 C 4.992188 -12.59375 3.460938 -12.3125 2.09375 -11.746094 L 1.152344 -11.371094 L 1.152344 0 L 4.707031 0 L 4.707031 -9.15625 L 4.800781 -9.179688 C 5.320312 -9.296875 5.765625 -9.367188 6.191406 -9.367188 C 7.390625 -9.367188 7.980469 -8.78125 7.980469 -7.625 L 7.980469 0 L 11.535156 0 L 11.535156 -7.699219 C 11.535156 -8.238281 11.488281 -8.710938 11.394531 -9.132812 C 11.933594 -9.296875 12.476562 -9.367188 13.015625 -9.367188 C 14.21875 -9.367188 14.804688 -8.78125 14.804688 -7.625 L 14.804688 0 L 18.359375 0 L 18.359375 -7.722656 C 18.359375 -10.96875 16.738281 -12.59375 13.511719 -12.59375 C 12.027344 -12.59375 10.710938 -12.382812 9.558594 -11.933594 C 8.804688 -12.382812 7.839844 -12.59375 6.683594 -12.59375 Z M 6.683594 -12.59375 "/></g></g></g><g fill="rgb(100%, 100%, 100%)" fill-opacity="0.4"><g transform="translate(329.682539, 142.422987)"><g><path d="M 12.050781 -7.625 C 12.050781 -10.757812 10.097656 -12.59375 6.425781 -12.59375 C 2.777344 -12.59375 0.824219 -10.757812 0.824219 -7.625 L 0.824219 -4.589844 C 0.824219 -1.484375 2.777344 0.351562 6.425781 0.351562 C 10.097656 0.351562 12.050781 -1.460938 12.050781 -4.589844 Z M 6.425781 -9.441406 C 7.816406 -9.441406 8.496094 -8.851562 8.496094 -7.675781 L 8.496094 -4.566406 C 8.496094 -3.390625 7.816406 -2.800781 6.425781 -2.800781 C 5.0625 -2.800781 4.378906 -3.390625 4.378906 -4.566406 L 4.378906 -7.675781 C 4.378906 -8.851562 5.0625 -9.441406 6.425781 -9.441406 Z M 6.425781 -9.441406 "/></g></g></g><g fill="rgb(100%, 100%, 100%)" fill-opacity="0.4"><g transform="translate(342.558814, 142.422987)"><g><path d="M 1.152344 -11.371094 L 1.152344 0 L 4.707031 0 L 4.707031 -9.132812 L 4.777344 -9.15625 C 5.273438 -9.296875 5.8125 -9.367188 6.425781 -9.367188 C 7.769531 -9.367188 8.425781 -8.78125 8.425781 -7.601562 L 8.425781 0 L 11.980469 0 L 11.980469 -7.722656 C 11.980469 -10.96875 10.285156 -12.59375 6.898438 -12.59375 C 5.0625 -12.59375 3.460938 -12.3125 2.09375 -11.746094 Z M 1.152344 -11.371094 "/></g></g></g><g fill="rgb(100%, 100%, 100%)" fill-opacity="0.4"><g transform="translate(355.623409, 142.422987)"><g><path d="M 12.050781 -7.625 C 12.050781 -10.757812 10.097656 -12.59375 6.425781 -12.59375 C 2.777344 -12.59375 0.824219 -10.757812 0.824219 -7.625 L 0.824219 -4.589844 C 0.824219 -1.484375 2.777344 0.351562 6.425781 0.351562 C 10.097656 0.351562 12.050781 -1.460938 12.050781 -4.589844 Z M 6.425781 -9.441406 C 7.816406 -9.441406 8.496094 -8.851562 8.496094 -7.675781 L 8.496094 -4.566406 C 8.496094 -3.390625 7.816406 -2.800781 6.425781 -2.800781 C 5.0625 -2.800781 4.378906 -3.390625 4.378906 -4.566406 L 4.378906 -7.675781 C 4.378906 -8.851562 5.0625 -9.441406 6.425781 -9.441406 Z M 6.425781 -9.441406 "/></g></g></g><g fill="rgb(100%, 100%, 100%)" fill-opacity="0.4"><g transform="translate(368.499684, 142.422987)"><g><path d="M 2.09375 -11.863281 C 1.339844 -11.558594 1.152344 -11.277344 1.152344 -10.5 L 1.152344 0 L 4.707031 0 L 4.707031 -9.085938 C 4.707031 -9.179688 4.753906 -9.226562 4.847656 -9.25 C 5.34375 -9.367188 5.886719 -9.414062 6.519531 -9.414062 L 8.261719 -9.414062 L 8.261719 -12.59375 L 6.613281 -12.59375 C 4.660156 -12.523438 3.15625 -12.289062 2.09375 -11.863281 Z M 2.09375 -11.863281 "/></g></g></g><g fill="rgb(100%, 100%, 100%)" fill-opacity="0.4"><g transform="translate(376.926941, 142.422987)"><g><path d="M 6.449219 -12.59375 C 2.800781 -12.59375 0.800781 -10.757812 0.800781 -7.367188 L 0.800781 -4.871094 C 0.800781 -1.695312 2.566406 0.351562 6.425781 0.351562 C 8.96875 0.351562 10.6875 -0.375 11.605469 -1.835938 L 11.980469 -2.449219 L 9.039062 -3.953125 L 8.710938 -3.507812 C 8.238281 -2.871094 7.484375 -2.566406 6.472656 -2.566406 C 5.0625 -2.566406 4.355469 -3.179688 4.355469 -4.425781 L 4.355469 -5.015625 L 12.121094 -5.015625 L 12.121094 -7.625 C 12.121094 -10.523438 10.191406 -12.59375 6.449219 -12.59375 Z M 8.546875 -7.578125 L 4.355469 -7.578125 L 4.355469 -7.957031 C 4.355469 -9.15625 5.0625 -9.769531 6.449219 -9.769531 C 7.839844 -9.769531 8.546875 -9.15625 8.546875 -7.957031 Z M 8.546875 -7.578125 "/></g></g></g><g fill="rgb(100%, 100%, 100%)" fill-opacity="0.4"><g transform="translate(389.709063, 142.422987)"><g><path d="M 1.152344 -11.511719 L 1.152344 5.179688 L 4.707031 5.179688 L 4.707031 0.140625 C 5.414062 0.28125 6.027344 0.351562 6.566406 0.351562 C 10.167969 0.351562 12.003906 -1.4375 12.003906 -4.753906 L 12.003906 -7.722656 C 12.003906 -10.851562 10.335938 -12.59375 6.875 -12.59375 C 4.96875 -12.59375 3.390625 -12.359375 2.117188 -11.863281 Z M 4.847656 -9.25 C 5.390625 -9.367188 5.933594 -9.414062 6.449219 -9.414062 C 7.769531 -9.414062 8.425781 -8.851562 8.425781 -7.699219 L 8.425781 -4.753906 C 8.425781 -3.460938 7.722656 -2.824219 6.285156 -2.824219 C 5.835938 -2.824219 5.296875 -2.871094 4.707031 -2.964844 L 4.707031 -9.226562 Z M 4.847656 -9.25 "/></g></g></g><g fill="rgb(100%, 100%, 100%)" fill-opacity="0.4"><g transform="translate(402.538254, 142.422987)"><g><path d="M 12.050781 -7.625 C 12.050781 -10.757812 10.097656 -12.59375 6.425781 -12.59375 C 2.777344 -12.59375 0.824219 -10.757812 0.824219 -7.625 L 0.824219 -4.589844 C 0.824219 -1.484375 2.777344 0.351562 6.425781 0.351562 C 10.097656 0.351562 12.050781 -1.460938 12.050781 -4.589844 Z M 6.425781 -9.441406 C 7.816406 -9.441406 8.496094 -8.851562 8.496094 -7.675781 L 8.496094 -4.566406 C 8.496094 -3.390625 7.816406 -2.800781 6.425781 -2.800781 C 5.0625 -2.800781 4.378906 -3.390625 4.378906 -4.566406 L 4.378906 -7.675781 C 4.378906 -8.851562 5.0625 -9.441406 6.425781 -9.441406 Z M 6.425781 -9.441406 "/></g></g></g><g fill="rgb(100%, 100%, 100%)" fill-opacity="0.4"><g transform="translate(415.414529, 142.422987)"><g/></g></g><g fill="rgb(100%, 100%, 100%)" fill-opacity="0.4"><g transform="translate(420.169576, 142.422987)"><g><path d="M 5.789062 -12.59375 C 2.519531 -12.59375 0.730469 -11.039062 0.730469 -8.664062 C 0.730469 -5.695312 3.058594 -5.039062 5.554688 -4.800781 C 7.507812 -4.613281 8.050781 -4.425781 8.050781 -3.671875 C 8.050781 -3.035156 7.367188 -2.707031 6.027344 -2.707031 C 4.871094 -2.707031 4.167969 -3.011719 3.882812 -3.601562 L 3.625 -4.167969 L 0.445312 -3.128906 L 0.730469 -2.449219 C 1.484375 -0.589844 3.296875 0.351562 6.144531 0.351562 C 9.511719 0.351562 11.441406 -1.269531 11.441406 -3.742188 C 11.441406 -6.378906 9.863281 -7.273438 6.449219 -7.601562 C 4.730469 -7.769531 4.167969 -7.980469 4.167969 -8.664062 C 4.167969 -9.226562 4.753906 -9.511719 5.910156 -9.511719 C 6.851562 -9.511719 7.53125 -9.203125 7.957031 -8.617188 L 8.285156 -8.144531 L 11.371094 -9.441406 L 11.015625 -10.074219 C 10.121094 -11.746094 8.378906 -12.59375 5.789062 -12.59375 Z M 5.789062 -12.59375 "/></g></g></g><g fill="rgb(100%, 100%, 100%)" fill-opacity="0.4"><g transform="translate(432.174875, 142.422987)"><g><path d="M 0.210938 -12.242188 L 0.210938 -9.085938 L 2.332031 -9.085938 L 2.332031 -4.992188 C 2.332031 -0.730469 4 0.328125 8.050781 0.328125 L 8.921875 0.328125 L 8.921875 -2.941406 L 8.050781 -2.941406 C 6.425781 -2.941406 5.886719 -3.367188 5.886719 -5.132812 L 5.886719 -9.085938 L 8.921875 -9.085938 L 8.921875 -12.242188 L 5.886719 -12.242188 L 5.886719 -15.066406 L 2.332031 -15.066406 L 2.332031 -12.242188 Z M 0.210938 -12.242188 "/></g></g></g><g fill="rgb(100%, 100%, 100%)" fill-opacity="0.4"><g transform="translate(441.614345, 142.422987)"><g><path d="M 7.792969 -7.34375 C 7.296875 -7.367188 6.730469 -7.390625 6.121094 -7.390625 C 2.164062 -7.390625 0.636719 -6.425781 0.636719 -3.53125 C 0.636719 -0.871094 1.953125 0.351562 6.027344 0.351562 C 8.050781 0.351562 9.535156 0.140625 10.476562 -0.28125 C 10.570312 -0.328125 11.347656 -0.683594 11.347656 -0.683594 L 11.347656 -7.625 C 11.347656 -10.945312 9.605469 -12.59375 6.097656 -12.59375 C 3.601562 -12.59375 1.929688 -11.769531 1.058594 -10.144531 L 0.707031 -9.464844 L 3.648438 -8.238281 L 4.023438 -8.734375 C 4.472656 -9.320312 5.109375 -9.605469 5.980469 -9.605469 C 7.179688 -9.605469 7.792969 -9.015625 7.792969 -7.863281 Z M 5.8125 -4.683594 C 6.167969 -4.683594 7.601562 -4.636719 7.792969 -4.636719 L 7.792969 -2.519531 L 7.578125 -2.496094 C 7.179688 -2.425781 6.566406 -2.402344 5.765625 -2.402344 C 4.542969 -2.402344 4.191406 -2.800781 4.191406 -3.554688 C 4.191406 -4.285156 4.566406 -4.683594 5.8125 -4.683594 Z M 5.8125 -4.683594 "/></g></g></g><g fill="rgb(100%, 100%, 100%)" fill-opacity="0.4"><g transform="translate(453.9492, 142.422987)"><g><path d="M 2.09375 -11.863281 C 1.339844 -11.558594 1.152344 -11.277344 1.152344 -10.5 L 1.152344 0 L 4.707031 0 L 4.707031 -9.085938 C 4.707031 -9.179688 4.753906 -9.226562 4.847656 -9.25 C 5.34375 -9.367188 5.886719 -9.414062 6.519531 -9.414062 L 8.261719 -9.414062 L 8.261719 -12.59375 L 6.613281 -12.59375 C 4.660156 -12.523438 3.15625 -12.289062 2.09375 -11.863281 Z M 2.09375 -11.863281 "/></g></g></g><g fill="rgb(100%, 100%, 100%)" fill-opacity="0.4"><g transform="translate(462.376457, 142.422987)"><g><path d="M 0.210938 -12.242188 L 0.210938 -9.085938 L 2.332031 -9.085938 L 2.332031 -4.992188 C 2.332031 -0.730469 4 0.328125 8.050781 0.328125 L 8.921875 0.328125 L 8.921875 -2.941406 L 8.050781 -2.941406 C 6.425781 -2.941406 5.886719 -3.367188 5.886719 -5.132812 L 5.886719 -9.085938 L 8.921875 -9.085938 L 8.921875 -12.242188 L 5.886719 -12.242188 L 5.886719 -15.066406 L 2.332031 -15.066406 L 2.332031 -12.242188 Z M 0.210938 -12.242188 "/></g></g></g><g fill="rgb(100%, 100%, 100%)" fill-opacity="0.4"><g transform="translate(471.815942, 142.422987)"><g><path d="M 6.449219 -12.59375 C 2.800781 -12.59375 0.800781 -10.757812 0.800781 -7.367188 L 0.800781 -4.871094 C 0.800781 -1.695312 2.566406 0.351562 6.425781 0.351562 C 8.96875 0.351562 10.6875 -0.375 11.605469 -1.835938 L 11.980469 -2.449219 L 9.039062 -3.953125 L 8.710938 -3.507812 C 8.238281 -2.871094 7.484375 -2.566406 6.472656 -2.566406 C 5.0625 -2.566406 4.355469 -3.179688 4.355469 -4.425781 L 4.355469 -5.015625 L 12.121094 -5.015625 L 12.121094 -7.625 C 12.121094 -10.523438 10.191406 -12.59375 6.449219 -12.59375 Z M 8.546875 -7.578125 L 4.355469 -7.578125 L 4.355469 -7.957031 C 4.355469 -9.15625 5.0625 -9.769531 6.449219 -9.769531 C 7.839844 -9.769531 8.546875 -9.15625 8.546875 -7.957031 Z M 8.546875 -7.578125 "/></g></g></g><g fill="rgb(100%, 100%, 100%)" fill-opacity="0.4"><g transform="translate(484.598079, 142.422987)"><g><path d="M 2.09375 -11.863281 C 1.339844 -11.558594 1.152344 -11.277344 1.152344 -10.5 L 1.152344 0 L 4.707031 0 L 4.707031 -9.085938 C 4.707031 -9.179688 4.753906 -9.226562 4.847656 -9.25 C 5.34375 -9.367188 5.886719 -9.414062 6.519531 -9.414062 L 8.261719 -9.414062 L 8.261719 -12.59375 L 6.613281 -12.59375 C 4.660156 -12.523438 3.15625 -12.289062 2.09375 -11.863281 Z M 2.09375 -11.863281 "/></g></g></g><g fill="rgb(100%, 100%, 100%)" fill-opacity="0.4"><g transform="translate(493.025336, 142.422987)"><g/></g></g><g fill="rgb(100%, 100%, 100%)" fill-opacity="0.4"><g transform="translate(497.780384, 142.422987)"><g><path d="M 5.578125 -4.636719 C 6.308594 -4.636719 6.828125 -4.332031 7.085938 -3.695312 L 8.6875 0 L 12.617188 0 L 10.050781 -5.203125 C 9.652344 -6.003906 9.203125 -6.566406 8.734375 -6.898438 L 12.640625 -12.242188 L 8.546875 -12.242188 L 5.390625 -7.792969 L 4.753906 -7.792969 L 4.753906 -17.417969 L 1.199219 -17.417969 L 1.199219 0 L 4.753906 0 L 4.753906 -4.636719 Z M 5.578125 -4.636719 "/></g></g></g><g fill="rgb(100%, 100%, 100%)" fill-opacity="0.4"><g transform="translate(510.397742, 142.422987)"><g><path d="M 4.730469 -12.242188 L 1.175781 -12.242188 L 1.175781 0 L 4.730469 0 Z M 2.941406 -16.925781 C 1.953125 -16.925781 1.152344 -16.125 1.152344 -15.136719 C 1.152344 -14.148438 1.953125 -13.347656 2.941406 -13.347656 C 3.929688 -13.347656 4.730469 -14.148438 4.730469 -15.136719 C 4.730469 -16.125 3.929688 -16.925781 2.941406 -16.925781 Z M 2.941406 -16.925781 "/></g></g></g><g fill="rgb(100%, 100%, 100%)" fill-opacity="0.4"><g transform="translate(516.329766, 142.422987)"><g><path d="M 0.210938 -12.242188 L 0.210938 -9.085938 L 2.332031 -9.085938 L 2.332031 -4.992188 C 2.332031 -0.730469 4 0.328125 8.050781 0.328125 L 8.921875 0.328125 L 8.921875 -2.941406 L 8.050781 -2.941406 C 6.425781 -2.941406 5.886719 -3.367188 5.886719 -5.132812 L 5.886719 -9.085938 L 8.921875 -9.085938 L 8.921875 -12.242188 L 5.886719 -12.242188 L 5.886719 -15.066406 L 2.332031 -15.066406 L 2.332031 -12.242188 Z M 0.210938 -12.242188 "/></g></g></g><g fill="rgb(26.669312%, 38.819885%, 53.729248%)" fill-opacity="1"><g transform="translate(204.953285, 141.895745)"><g><path d="M 11.652344 -9.863281 L 5.273438 -9.863281 L 5.273438 -13.230469 L 12.828125 -13.230469 L 12.828125 -16.714844 L 1.4375 -16.714844 L 1.4375 0 L 5.273438 0 L 5.273438 -6.378906 L 11.652344 -6.378906 Z M 11.652344 -9.863281 "/></g></g></g><g fill="rgb(26.669312%, 38.819885%, 53.729248%)" fill-opacity="1"><g transform="translate(218.370979, 141.895745)"><g><path d="M 4.636719 -12.242188 L 1.082031 -12.242188 L 1.082031 -4.519531 C 1.082031 -1.269531 2.777344 0.351562 6.167969 0.351562 C 7.980469 0.351562 9.605469 0.0703125 10.992188 -0.496094 L 11.910156 -0.871094 L 11.910156 -12.242188 L 8.355469 -12.242188 L 8.355469 -3.082031 L 8.191406 -3.035156 C 7.699219 -2.917969 7.179688 -2.871094 6.636719 -2.871094 C 5.296875 -2.871094 4.636719 -3.460938 4.636719 -4.636719 Z M 4.636719 -12.242188 "/></g></g></g><g fill="rgb(26.669312%, 38.819885%, 53.729248%)" fill-opacity="1"><g transform="translate(231.435574, 141.895745)"><g><path d="M 4.800781 -17.417969 L 1.246094 -17.417969 L 1.246094 0 L 4.800781 0 Z M 4.800781 -17.417969 "/></g></g></g><g fill="rgb(26.669312%, 38.819885%, 53.729248%)" fill-opacity="1"><g transform="translate(237.461766, 141.895745)"><g><path d="M 4.800781 -17.417969 L 1.246094 -17.417969 L 1.246094 0 L 4.800781 0 Z M 4.800781 -17.417969 "/></g></g></g><g fill="rgb(26.669312%, 38.819885%, 53.729248%)" fill-opacity="1"><g transform="translate(243.487957, 141.895745)"><g/></g></g><g fill="rgb(26.669312%, 38.819885%, 53.729248%)" fill-opacity="1"><g transform="translate(248.243004, 141.895745)"><g><path d="M 5.789062 -12.59375 C 2.519531 -12.59375 0.730469 -11.039062 0.730469 -8.664062 C 0.730469 -5.695312 3.058594 -5.039062 5.554688 -4.800781 C 7.507812 -4.613281 8.050781 -4.425781 8.050781 -3.671875 C 8.050781 -3.035156 7.367188 -2.707031 6.027344 -2.707031 C 4.871094 -2.707031 4.167969 -3.011719 3.882812 -3.601562 L 3.625 -4.167969 L 0.445312 -3.128906 L 0.730469 -2.449219 C 1.484375 -0.589844 3.296875 0.351562 6.144531 0.351562 C 9.511719 0.351562 11.441406 -1.269531 11.441406 -3.742188 C 11.441406 -6.378906 9.863281 -7.273438 6.449219 -7.601562 C 4.730469 -7.769531 4.167969 -7.980469 4.167969 -8.664062 C 4.167969 -9.226562 4.753906 -9.511719 5.910156 -9.511719 C 6.851562 -9.511719 7.53125 -9.203125 7.957031 -8.617188 L 8.285156 -8.144531 L 11.371094 -9.441406 L 11.015625 -10.074219 C 10.121094 -11.746094 8.378906 -12.59375 5.789062 -12.59375 Z M 5.789062 -12.59375 "/></g></g></g><g fill="rgb(26.669312%, 38.819885%, 53.729248%)" fill-opacity="1"><g transform="translate(260.248303, 141.895745)"><g><path d="M 0.210938 -12.242188 L 0.210938 -9.085938 L 2.332031 -9.085938 L 2.332031 -4.992188 C 2.332031 -0.730469 4 0.328125 8.050781 0.328125 L 8.921875 0.328125 L 8.921875 -2.941406 L 8.050781 -2.941406 C 6.425781 -2.941406 5.886719 -3.367188 5.886719 -5.132812 L 5.886719 -9.085938 L 8.921875 -9.085938 L 8.921875 -12.242188 L 5.886719 -12.242188 L 5.886719 -15.066406 L 2.332031 -15.066406 L 2.332031 -12.242188 Z M 0.210938 -12.242188 "/></g></g></g><g fill="rgb(26.669312%, 38.819885%, 53.729248%)" fill-opacity="1"><g transform="translate(269.687773, 141.895745)"><g><path d="M 7.792969 -7.34375 C 7.296875 -7.367188 6.730469 -7.390625 6.121094 -7.390625 C 2.164062 -7.390625 0.636719 -6.425781 0.636719 -3.53125 C 0.636719 -0.871094 1.953125 0.351562 6.027344 0.351562 C 8.050781 0.351562 9.535156 0.140625 10.476562 -0.28125 C 10.570312 -0.328125 11.347656 -0.683594 11.347656 -0.683594 L 11.347656 -7.625 C 11.347656 -10.945312 9.605469 -12.59375 6.097656 -12.59375 C 3.601562 -12.59375 1.929688 -11.769531 1.058594 -10.144531 L 0.707031 -9.464844 L 3.648438 -8.238281 L 4.023438 -8.734375 C 4.472656 -9.320312 5.109375 -9.605469 5.980469 -9.605469 C 7.179688 -9.605469 7.792969 -9.015625 7.792969 -7.863281 Z M 5.8125 -4.683594 C 6.167969 -4.683594 7.601562 -4.636719 7.792969 -4.636719 L 7.792969 -2.519531 L 7.578125 -2.496094 C 7.179688 -2.425781 6.566406 -2.402344 5.765625 -2.402344 C 4.542969 -2.402344 4.191406 -2.800781 4.191406 -3.554688 C 4.191406 -4.285156 4.566406 -4.683594 5.8125 -4.683594 Z M 5.8125 -4.683594 "/></g></g></g><g fill="rgb(26.669312%, 38.819885%, 53.729248%)" fill-opacity="1"><g transform="translate(282.022629, 141.895745)"><g><path d="M 4.378906 -7.769531 C 4.378906 -8.945312 5.015625 -9.535156 6.285156 -9.535156 C 7.25 -9.535156 7.886719 -9.132812 8.214844 -8.332031 C 8.238281 -8.261719 8.570312 -7.460938 8.570312 -7.460938 L 11.910156 -8.546875 L 11.582031 -9.464844 C 10.921875 -11.347656 9.132812 -12.59375 6.425781 -12.59375 C 2.660156 -12.59375 0.824219 -10.78125 0.824219 -7.601562 L 0.824219 -4.636719 C 0.824219 -1.316406 2.613281 0.351562 6.191406 0.351562 C 8.921875 0.351562 10.734375 -0.683594 11.605469 -2.753906 L 12.003906 -3.695312 L 8.570312 -4.753906 C 8.570312 -4.753906 8.238281 -3.953125 8.214844 -3.90625 C 7.886719 -3.105469 7.25 -2.707031 6.285156 -2.707031 C 5.015625 -2.707031 4.378906 -3.296875 4.378906 -4.472656 Z M 4.378906 -7.769531 "/></g></g></g><g fill="rgb(26.669312%, 38.819885%, 53.729248%)" fill-opacity="1"><g transform="translate(294.23979, 141.895745)"><g><path d="M 5.578125 -4.636719 C 6.308594 -4.636719 6.828125 -4.332031 7.085938 -3.695312 L 8.6875 0 L 12.617188 0 L 10.050781 -5.203125 C 9.652344 -6.003906 9.203125 -6.566406 8.734375 -6.898438 L 12.640625 -12.242188 L 8.546875 -12.242188 L 5.390625 -7.792969 L 4.753906 -7.792969 L 4.753906 -17.417969 L 1.199219 -17.417969 L 1.199219 0 L 4.753906 0 L 4.753906 -4.636719 Z M 5.578125 -4.636719 "/></g></g></g><g fill="rgb(26.669312%, 38.819885%, 53.729248%)" fill-opacity="1"><g transform="translate(306.857133, 141.895745)"><g/></g></g><g fill="rgb(26.669312%, 38.819885%, 53.729248%)" fill-opacity="1"><g transform="translate(311.612181, 141.895745)"><g><path d="M 6.683594 -12.59375 C 4.992188 -12.59375 3.460938 -12.3125 2.09375 -11.746094 L 1.152344 -11.371094 L 1.152344 0 L 4.707031 0 L 4.707031 -9.15625 L 4.800781 -9.179688 C 5.320312 -9.296875 5.765625 -9.367188 6.191406 -9.367188 C 7.390625 -9.367188 7.980469 -8.78125 7.980469 -7.625 L 7.980469 0 L 11.535156 0 L 11.535156 -7.699219 C 11.535156 -8.238281 11.488281 -8.710938 11.394531 -9.132812 C 11.933594 -9.296875 12.476562 -9.367188 13.015625 -9.367188 C 14.21875 -9.367188 14.804688 -8.78125 14.804688 -7.625 L 14.804688 0 L 18.359375 0 L 18.359375 -7.722656 C 18.359375 -10.96875 16.738281 -12.59375 13.511719 -12.59375 C 12.027344 -12.59375 10.710938 -12.382812 9.558594 -11.933594 C 8.804688 -12.382812 7.839844 -12.59375 6.683594 -12.59375 Z M 6.683594 -12.59375 "/></g></g></g><g fill="rgb(26.669312%, 38.819885%, 53.729248%)" fill-opacity="1"><g transform="translate(331.056066, 141.895745)"><g><path d="M 12.050781 -7.625 C 12.050781 -10.757812 10.097656 -12.59375 6.425781 -12.59375 C 2.777344 -12.59375 0.824219 -10.757812 0.824219 -7.625 L 0.824219 -4.589844 C 0.824219 -1.484375 2.777344 0.351562 6.425781 0.351562 C 10.097656 0.351562 12.050781 -1.460938 12.050781 -4.589844 Z M 6.425781 -9.441406 C 7.816406 -9.441406 8.496094 -8.851562 8.496094 -7.675781 L 8.496094 -4.566406 C 8.496094 -3.390625 7.816406 -2.800781 6.425781 -2.800781 C 5.0625 -2.800781 4.378906 -3.390625 4.378906 -4.566406 L 4.378906 -7.675781 C 4.378906 -8.851562 5.0625 -9.441406 6.425781 -9.441406 Z M 6.425781 -9.441406 "/></g></g></g><g fill="rgb(26.669312%, 38.819885%, 53.729248%)" fill-opacity="1"><g transform="translate(343.932341, 141.895745)"><g><path d="M 1.152344 -11.371094 L 1.152344 0 L 4.707031 0 L 4.707031 -9.132812 L 4.777344 -9.15625 C 5.273438 -9.296875 5.8125 -9.367188 6.425781 -9.367188 C 7.769531 -9.367188 8.425781 -8.78125 8.425781 -7.601562 L 8.425781 0 L 11.980469 0 L 11.980469 -7.722656 C 11.980469 -10.96875 10.285156 -12.59375 6.898438 -12.59375 C 5.0625 -12.59375 3.460938 -12.3125 2.09375 -11.746094 Z M 1.152344 -11.371094 "/></g></g></g><g fill="rgb(26.669312%, 38.819885%, 53.729248%)" fill-opacity="1"><g transform="translate(356.996936, 141.895745)"><g><path d="M 12.050781 -7.625 C 12.050781 -10.757812 10.097656 -12.59375 6.425781 -12.59375 C 2.777344 -12.59375 0.824219 -10.757812 0.824219 -7.625 L 0.824219 -4.589844 C 0.824219 -1.484375 2.777344 0.351562 6.425781 0.351562 C 10.097656 0.351562 12.050781 -1.460938 12.050781 -4.589844 Z M 6.425781 -9.441406 C 7.816406 -9.441406 8.496094 -8.851562 8.496094 -7.675781 L 8.496094 -4.566406 C 8.496094 -3.390625 7.816406 -2.800781 6.425781 -2.800781 C 5.0625 -2.800781 4.378906 -3.390625 4.378906 -4.566406 L 4.378906 -7.675781 C 4.378906 -8.851562 5.0625 -9.441406 6.425781 -9.441406 Z M 6.425781 -9.441406 "/></g></g></g><g fill="rgb(26.669312%, 38.819885%, 53.729248%)" fill-opacity="1"><g transform="translate(369.873211, 141.895745)"><g><path d="M 2.09375 -11.863281 C 1.339844 -11.558594 1.152344 -11.277344 1.152344 -10.5 L 1.152344 0 L 4.707031 0 L 4.707031 -9.085938 C 4.707031 -9.179688 4.753906 -9.226562 4.847656 -9.25 C 5.34375 -9.367188 5.886719 -9.414062 6.519531 -9.414062 L 8.261719 -9.414062 L 8.261719 -12.59375 L 6.613281 -12.59375 C 4.660156 -12.523438 3.15625 -12.289062 2.09375 -11.863281 Z M 2.09375 -11.863281 "/></g></g></g><g fill="rgb(26.669312%, 38.819885%, 53.729248%)" fill-opacity="1"><g transform="translate(378.300468, 141.895745)"><g><path d="M 6.449219 -12.59375 C 2.800781 -12.59375 0.800781 -10.757812 0.800781 -7.367188 L 0.800781 -4.871094 C 0.800781 -1.695312 2.566406 0.351562 6.425781 0.351562 C 8.96875 0.351562 10.6875 -0.375 11.605469 -1.835938 L 11.980469 -2.449219 L 9.039062 -3.953125 L 8.710938 -3.507812 C 8.238281 -2.871094 7.484375 -2.566406 6.472656 -2.566406 C 5.0625 -2.566406 4.355469 -3.179688 4.355469 -4.425781 L 4.355469 -5.015625 L 12.121094 -5.015625 L 12.121094 -7.625 C 12.121094 -10.523438 10.191406 -12.59375 6.449219 -12.59375 Z M 8.546875 -7.578125 L 4.355469 -7.578125 L 4.355469 -7.957031 C 4.355469 -9.15625 5.0625 -9.769531 6.449219 -9.769531 C 7.839844 -9.769531 8.546875 -9.15625 8.546875 -7.957031 Z M 8.546875 -7.578125 "/></g></g></g><g fill="rgb(26.669312%, 38.819885%, 53.729248%)" fill-opacity="1"><g transform="translate(391.08259, 141.895745)"><g><path d="M 1.152344 -11.511719 L 1.152344 5.179688 L 4.707031 5.179688 L 4.707031 0.140625 C 5.414062 0.28125 6.027344 0.351562 6.566406 0.351562 C 10.167969 0.351562 12.003906 -1.4375 12.003906 -4.753906 L 12.003906 -7.722656 C 12.003906 -10.851562 10.335938 -12.59375 6.875 -12.59375 C 4.96875 -12.59375 3.390625 -12.359375 2.117188 -11.863281 Z M 4.847656 -9.25 C 5.390625 -9.367188 5.933594 -9.414062 6.449219 -9.414062 C 7.769531 -9.414062 8.425781 -8.851562 8.425781 -7.699219 L 8.425781 -4.753906 C 8.425781 -3.460938 7.722656 -2.824219 6.285156 -2.824219 C 5.835938 -2.824219 5.296875 -2.871094 4.707031 -2.964844 L 4.707031 -9.226562 Z M 4.847656 -9.25 "/></g></g></g><g fill="rgb(26.669312%, 38.819885%, 53.729248%)" fill-opacity="1"><g transform="translate(403.911781, 141.895745)"><g><path d="M 12.050781 -7.625 C 12.050781 -10.757812 10.097656 -12.59375 6.425781 -12.59375 C 2.777344 -12.59375 0.824219 -10.757812 0.824219 -7.625 L 0.824219 -4.589844 C 0.824219 -1.484375 2.777344 0.351562 6.425781 0.351562 C 10.097656 0.351562 12.050781 -1.460938 12.050781 -4.589844 Z M 6.425781 -9.441406 C 7.816406 -9.441406 8.496094 -8.851562 8.496094 -7.675781 L 8.496094 -4.566406 C 8.496094 -3.390625 7.816406 -2.800781 6.425781 -2.800781 C 5.0625 -2.800781 4.378906 -3.390625 4.378906 -4.566406 L 4.378906 -7.675781 C 4.378906 -8.851562 5.0625 -9.441406 6.425781 -9.441406 Z M 6.425781 -9.441406 "/></g></g></g><g fill="rgb(26.669312%, 38.819885%, 53.729248%)" fill-opacity="1"><g transform="translate(416.788056, 141.895745)"><g/></g></g><g fill="rgb(26.669312%, 38.819885%, 53.729248%)" fill-opacity="1"><g transform="translate(421.543103, 141.895745)"><g><path d="M 5.789062 -12.59375 C 2.519531 -12.59375 0.730469 -11.039062 0.730469 -8.664062 C 0.730469 -5.695312 3.058594 -5.039062 5.554688 -4.800781 C 7.507812 -4.613281 8.050781 -4.425781 8.050781 -3.671875 C 8.050781 -3.035156 7.367188 -2.707031 6.027344 -2.707031 C 4.871094 -2.707031 4.167969 -3.011719 3.882812 -3.601562 L 3.625 -4.167969 L 0.445312 -3.128906 L 0.730469 -2.449219 C 1.484375 -0.589844 3.296875 0.351562 6.144531 0.351562 C 9.511719 0.351562 11.441406 -1.269531 11.441406 -3.742188 C 11.441406 -6.378906 9.863281 -7.273438 6.449219 -7.601562 C 4.730469 -7.769531 4.167969 -7.980469 4.167969 -8.664062 C 4.167969 -9.226562 4.753906 -9.511719 5.910156 -9.511719 C 6.851562 -9.511719 7.53125 -9.203125 7.957031 -8.617188 L 8.285156 -8.144531 L 11.371094 -9.441406 L 11.015625 -10.074219 C 10.121094 -11.746094 8.378906 -12.59375 5.789062 -12.59375 Z M 5.789062 -12.59375 "/></g></g></g><g fill="rgb(26.669312%, 38.819885%, 53.729248%)" fill-opacity="1"><g transform="translate(433.548402, 141.895745)"><g><path d="M 0.210938 -12.242188 L 0.210938 -9.085938 L 2.332031 -9.085938 L 2.332031 -4.992188 C 2.332031 -0.730469 4 0.328125 8.050781 0.328125 L 8.921875 0.328125 L 8.921875 -2.941406 L 8.050781 -2.941406 C 6.425781 -2.941406 5.886719 -3.367188 5.886719 -5.132812 L 5.886719 -9.085938 L 8.921875 -9.085938 L 8.921875 -12.242188 L 5.886719 -12.242188 L 5.886719 -15.066406 L 2.332031 -15.066406 L 2.332031 -12.242188 Z M 0.210938 -12.242188 "/></g></g></g><g fill="rgb(26.669312%, 38.819885%, 53.729248%)" fill-opacity="1"><g transform="translate(442.987872, 141.895745)"><g><path d="M 7.792969 -7.34375 C 7.296875 -7.367188 6.730469 -7.390625 6.121094 -7.390625 C 2.164062 -7.390625 0.636719 -6.425781 0.636719 -3.53125 C 0.636719 -0.871094 1.953125 0.351562 6.027344 0.351562 C 8.050781 0.351562 9.535156 0.140625 10.476562 -0.28125 C 10.570312 -0.328125 11.347656 -0.683594 11.347656 -0.683594 L 11.347656 -7.625 C 11.347656 -10.945312 9.605469 -12.59375 6.097656 -12.59375 C 3.601562 -12.59375 1.929688 -11.769531 1.058594 -10.144531 L 0.707031 -9.464844 L 3.648438 -8.238281 L 4.023438 -8.734375 C 4.472656 -9.320312 5.109375 -9.605469 5.980469 -9.605469 C 7.179688 -9.605469 7.792969 -9.015625 7.792969 -7.863281 Z M 5.8125 -4.683594 C 6.167969 -4.683594 7.601562 -4.636719 7.792969 -4.636719 L 7.792969 -2.519531 L 7.578125 -2.496094 C 7.179688 -2.425781 6.566406 -2.402344 5.765625 -2.402344 C 4.542969 -2.402344 4.191406 -2.800781 4.191406 -3.554688 C 4.191406 -4.285156 4.566406 -4.683594 5.8125 -4.683594 Z M 5.8125 -4.683594 "/></g></g></g><g fill="rgb(26.669312%, 38.819885%, 53.729248%)" fill-opacity="1"><g transform="translate(455.322727, 141.895745)"><g><path d="M 2.09375 -11.863281 C 1.339844 -11.558594 1.152344 -11.277344 1.152344 -10.5 L 1.152344 0 L 4.707031 0 L 4.707031 -9.085938 C 4.707031 -9.179688 4.753906 -9.226562 4.847656 -9.25 C 5.34375 -9.367188 5.886719 -9.414062 6.519531 -9.414062 L 8.261719 -9.414062 L 8.261719 -12.59375 L 6.613281 -12.59375 C 4.660156 -12.523438 3.15625 -12.289062 2.09375 -11.863281 Z M 2.09375 -11.863281 "/></g></g></g><g fill="rgb(26.669312%, 38.819885%, 53.729248%)" fill-opacity="1"><g transform="translate(463.749985, 141.895745)"><g><path d="M 0.210938 -12.242188 L 0.210938 -9.085938 L 2.332031 -9.085938 L 2.332031 -4.992188 C 2.332031 -0.730469 4 0.328125 8.050781 0.328125 L 8.921875 0.328125 L 8.921875 -2.941406 L 8.050781 -2.941406 C 6.425781 -2.941406 5.886719 -3.367188 5.886719 -5.132812 L 5.886719 -9.085938 L 8.921875 -9.085938 L 8.921875 -12.242188 L 5.886719 -12.242188 L 5.886719 -15.066406 L 2.332031 -15.066406 L 2.332031 -12.242188 Z M 0.210938 -12.242188 "/></g></g></g><g fill="rgb(26.669312%, 38.819885%, 53.729248%)" fill-opacity="1"><g transform="translate(473.189469, 141.895745)"><g><path d="M 6.449219 -12.59375 C 2.800781 -12.59375 0.800781 -10.757812 0.800781 -7.367188 L 0.800781 -4.871094 C 0.800781 -1.695312 2.566406 0.351562 6.425781 0.351562 C 8.96875 0.351562 10.6875 -0.375 11.605469 -1.835938 L 11.980469 -2.449219 L 9.039062 -3.953125 L 8.710938 -3.507812 C 8.238281 -2.871094 7.484375 -2.566406 6.472656 -2.566406 C 5.0625 -2.566406 4.355469 -3.179688 4.355469 -4.425781 L 4.355469 -5.015625 L 12.121094 -5.015625 L 12.121094 -7.625 C 12.121094 -10.523438 10.191406 -12.59375 6.449219 -12.59375 Z M 8.546875 -7.578125 L 4.355469 -7.578125 L 4.355469 -7.957031 C 4.355469 -9.15625 5.0625 -9.769531 6.449219 -9.769531 C 7.839844 -9.769531 8.546875 -9.15625 8.546875 -7.957031 Z M 8.546875 -7.578125 "/></g></g></g><g fill="rgb(26.669312%, 38.819885%, 53.729248%)" fill-opacity="1"><g transform="translate(485.971606, 141.895745)"><g><path d="M 2.09375 -11.863281 C 1.339844 -11.558594 1.152344 -11.277344 1.152344 -10.5 L 1.152344 0 L 4.707031 0 L 4.707031 -9.085938 C 4.707031 -9.179688 4.753906 -9.226562 4.847656 -9.25 C 5.34375 -9.367188 5.886719 -9.414062 6.519531 -9.414062 L 8.261719 -9.414062 L 8.261719 -12.59375 L 6.613281 -12.59375 C 4.660156 -12.523438 3.15625 -12.289062 2.09375 -11.863281 Z M 2.09375 -11.863281 "/></g></g></g><g fill="rgb(26.669312%, 38.819885%, 53.729248%)" fill-opacity="1"><g transform="translate(494.398863, 141.895745)"><g/></g></g><g fill="rgb(26.669312%, 38.819885%, 53.729248%)" fill-opacity="1"><g transform="translate(499.153911, 141.895745)"><g><path d="M 5.578125 -4.636719 C 6.308594 -4.636719 6.828125 -4.332031 7.085938 -3.695312 L 8.6875 0 L 12.617188 0 L 10.050781 -5.203125 C 9.652344 -6.003906 9.203125 -6.566406 8.734375 -6.898438 L 12.640625 -12.242188 L 8.546875 -12.242188 L 5.390625 -7.792969 L 4.753906 -7.792969 L 4.753906 -17.417969 L 1.199219 -17.417969 L 1.199219 0 L 4.753906 0 L 4.753906 -4.636719 Z M 5.578125 -4.636719 "/></g></g></g><g fill="rgb(26.669312%, 38.819885%, 53.729248%)" fill-opacity="1"><g transform="translate(511.771269, 141.895745)"><g><path d="M 4.730469 -12.242188 L 1.175781 -12.242188 L 1.175781 0 L 4.730469 0 Z M 2.941406 -16.925781 C 1.953125 -16.925781 1.152344 -16.125 1.152344 -15.136719 C 1.152344 -14.148438 1.953125 -13.347656 2.941406 -13.347656 C 3.929688 -13.347656 4.730469 -14.148438 4.730469 -15.136719 C 4.730469 -16.125 3.929688 -16.925781 2.941406 -16.925781 Z M 2.941406 -16.925781 "/></g></g></g><g fill="rgb(26.669312%, 38.819885%, 53.729248%)" fill-opacity="1"><g transform="translate(517.703293, 141.895745)"><g><path d="M 0.210938 -12.242188 L 0.210938 -9.085938 L 2.332031 -9.085938 L 2.332031 -4.992188 C 2.332031 -0.730469 4 0.328125 8.050781 0.328125 L 8.921875 0.328125 L 8.921875 -2.941406 L 8.050781 -2.941406 C 6.425781 -2.941406 5.886719 -3.367188 5.886719 -5.132812 L 5.886719 -9.085938 L 8.921875 -9.085938 L 8.921875 -12.242188 L 5.886719 -12.242188 L 5.886719 -15.066406 L 2.332031 -15.066406 L 2.332031 -12.242188 Z M 0.210938 -12.242188 "/></g></g></g><g clip-path="url(#id1)"><path fill="rgb(2.749634%, 58.428955%, 100%)" d="M 58.824219 59.535156 L 114.539062 86.324219 C 115.230469 86.652344 115.921875 86.652344 116.613281 86.324219 L 172.328125 59.535156 C 172.734375 59.335938 173.058594 59.042969 173.296875 58.65625 C 173.539062 58.273438 173.65625 57.855469 173.65625 57.402344 C 173.65625 56.949219 173.535156 56.53125 173.296875 56.144531 C 173.058594 55.761719 172.734375 55.46875 172.328125 55.269531 L 116.613281 28.480469 C 115.921875 28.152344 115.230469 28.152344 114.539062 28.480469 L 58.824219 55.269531 C 58.417969 55.46875 58.09375 55.761719 57.855469 56.144531 C 57.617188 56.53125 57.496094 56.949219 57.496094 57.402344 C 57.496094 57.855469 57.617188 58.273438 57.855469 58.65625 C 58.09375 59.042969 58.417969 59.335938 58.824219 59.535156 Z M 58.824219 59.535156 " fill-opacity="1" fill-rule="nonzero"/></g><g clip-path="url(#id2)"><path fill="rgb(8.239746%, 42.349243%, 86.669922%)" d="M 58.824219 92.0625 L 114.539062 118.800781 C 115.230469 119.128906 115.921875 119.128906 116.613281 118.800781 L 172.328125 92.0625 C 172.738281 91.867188 173.0625 91.578125 173.300781 91.195312 C 173.542969 90.8125 173.664062 90.394531 173.664062 89.941406 C 173.664062 89.492188 173.542969 89.074219 173.300781 88.691406 C 173.0625 88.308594 172.738281 88.019531 172.328125 87.824219 L 163.472656 83.53125 C 162.5625 83.078125 161.59375 82.851562 160.574219 82.851562 C 159.554688 82.851562 158.589844 83.078125 157.675781 83.53125 L 123.34375 100.078125 C 122.148438 100.648438 120.902344 101.082031 119.609375 101.375 C 118.316406 101.667969 117.003906 101.8125 115.679688 101.8125 C 114.355469 101.8125 113.042969 101.667969 111.75 101.375 C 110.457031 101.082031 109.210938 100.648438 108.015625 100.078125 L 73.503906 83.503906 C 72.582031 83.066406 71.613281 82.84375 70.589844 82.84375 C 69.570312 82.84375 68.597656 83.066406 67.679688 83.503906 L 58.824219 87.769531 C 58.414062 87.96875 58.089844 88.257812 57.851562 88.640625 C 57.609375 89.023438 57.488281 89.441406 57.488281 89.890625 C 57.488281 90.34375 57.609375 90.761719 57.851562 91.144531 C 58.089844 91.527344 58.414062 91.816406 58.824219 92.011719 Z M 58.824219 92.0625 " fill-opacity="1" fill-rule="nonzero"/></g><g clip-path="url(#id3)"><path fill="rgb(8.239746%, 42.349243%, 86.669922%)" d="M 172.328125 120.273438 L 163.472656 116.007812 C 162.558594 115.570312 161.589844 115.347656 160.574219 115.347656 C 159.558594 115.347656 158.589844 115.570312 157.675781 116.007812 L 123.34375 132.558594 C 122.148438 133.136719 120.90625 133.574219 119.613281 133.871094 C 118.316406 134.167969 117.007812 134.316406 115.679688 134.316406 C 114.351562 134.316406 113.042969 134.167969 111.746094 133.871094 C 110.453125 133.574219 109.210938 133.136719 108.015625 132.558594 L 73.605469 116.007812 C 72.6875 115.570312 71.714844 115.347656 70.695312 115.347656 C 69.671875 115.347656 68.703125 115.570312 67.78125 116.007812 L 58.925781 120.273438 C 58.519531 120.46875 58.195312 120.761719 57.953125 121.144531 C 57.714844 121.527344 57.59375 121.941406 57.59375 122.394531 C 57.59375 122.847656 57.714844 123.265625 57.953125 123.648438 C 58.195312 124.03125 58.519531 124.320312 58.925781 124.515625 L 114.539062 151.304688 C 115.230469 151.632812 115.921875 151.632812 116.613281 151.304688 L 172.328125 124.515625 C 172.738281 124.320312 173.0625 124.03125 173.300781 123.648438 C 173.542969 123.265625 173.664062 122.847656 173.664062 122.394531 C 173.664062 121.941406 173.542969 121.527344 173.300781 121.144531 C 173.0625 120.761719 172.738281 120.46875 172.328125 120.273438 Z M 172.328125 120.273438 " fill-opacity="1" fill-rule="nonzero"/></g></svg>